inDegrees=no
num_controls=7
num_derivatives=13
num_iterations=203
num_multipliers=7
num_parameters=0
num_slacks=7
num_states=26
objective=5.227029
objective_accelerations=0.624731
objective_balance=0.038801
objective_effort=0.591462
objective_height=3.922985
objective_ligament=0.049050
solver_duration=1989.942326
status=Solve_Succeeded
success=true
DataType=double
version=3
OpenSimVersion=4.4-2022-07-23-0e9fedc
endheader
time	/jointset/ground_pelvis/pelvis_tilt/value	/jointset/ground_pelvis/pelvis_tx/value	/jointset/ground_pelvis/pelvis_ty/value	/jointset/hip_l/hip_flexion_l/value	/jointset/hip_l/hip_adduction_l/value	/jointset/hip_l/hip_rotation_l/value	/jointset/back/lumbar_extension/value	/jointset/patellofemoral_l/patellar_flexion_l/value	/jointset/knee_l/knee_flexion_l/value	/jointset/knee_l/knee_adduction_l/value	/jointset/knee_l/knee_rotation_l/value	/jointset/ankle_l/ankle_angle_l/value	/jointset/subtalar_l/subtalar_angle_l/value	/jointset/ground_pelvis/pelvis_tilt/speed	/jointset/ground_pelvis/pelvis_tx/speed	/jointset/ground_pelvis/pelvis_ty/speed	/jointset/hip_l/hip_flexion_l/speed	/jointset/hip_l/hip_adduction_l/speed	/jointset/hip_l/hip_rotation_l/speed	/jointset/back/lumbar_extension/speed	/jointset/patellofemoral_l/patellar_flexion_l/speed	/jointset/knee_l/knee_flexion_l/speed	/jointset/knee_l/knee_adduction_l/speed	/jointset/knee_l/knee_rotation_l/speed	/jointset/ankle_l/ankle_angle_l/speed	/jointset/subtalar_l/subtalar_angle_l/speed	/forceset/tau_hip_flexion_l	/forceset/tau_hip_adduction_l	/forceset/tau_hip_rotation_l	/forceset/tau_knee_flexion_l	/forceset/tau_ankle_angle_l	/forceset/tau_subtalar_angle_l	/forceset/tau_lumbar_extension	lambda_cid13_p0	lambda_cid13_p1	lambda_cid13_p2	lambda_cid13_p3	lambda_cid13_p4	lambda_cid13_p5	lambda_cid14_p0	/jointset/ground_pelvis/pelvis_tilt/accel	/jointset/ground_pelvis/pelvis_tx/accel	/jointset/ground_pelvis/pelvis_ty/accel	/jointset/hip_l/hip_flexion_l/accel	/jointset/hip_l/hip_adduction_l/accel	/jointset/hip_l/hip_rotation_l/accel	/jointset/back/lumbar_extension/accel	/jointset/patellofemoral_l/patellar_flexion_l/accel	/jointset/knee_l/knee_flexion_l/accel	/jointset/knee_l/knee_adduction_l/accel	/jointset/knee_l/knee_rotation_l/accel	/jointset/ankle_l/ankle_angle_l/accel	/jointset/subtalar_l/subtalar_angle_l/accel	gamma_cid13_p0	gamma_cid13_p1	gamma_cid13_p2	gamma_cid13_p3	gamma_cid13_p4	gamma_cid13_p5	gamma_cid14_p0
0	-0.03662641696968338	0.05659205951471698	0.9203450679970429	0.3085811930696054	-0.2955851732018246	-0.3003786079594123	-0.3879500408040475	0.2499276582271243	0.249927658227084	-0.1745328936792454	-0.1733277866340579	-0.0008036543073733089	0.0004791604909939395	0	0	0	0	0	0	0	0	0	0	0	0	0	0.08355354976882208	-0.05472962140154822	-0.01902036066332561	-0.2379407799205653	0.1678803474827774	-0.008132243266309173	-0.01336346186222719	11.37634678233624	-1.06464613365565	2.690464257772442	20.58516877330771	-607.1036064370171	-78.35354595755734	-23.15619169086967	-1.585867275289981	-2.545326385324577	-1.153475876560257	12.03202359578449	-0.6818073363375245	3.863739534586614	-8.019234887546663	11.66528712235684	11.66528712235758	2.332357941124358	-0.19005346436092	2.050256138158507	-0.04541775427637047	1.958716137918899e-08	2.561862160248896e-07	6.660378843338102e-08	-2.050740029946437e-08	2.171256925694756e-07	1.371169405923413e-08	1.759289570042603e-08
0.01	-0.03670069690213806	0.05646708886470907	0.9202887250208389	0.3091675078416034	-0.2956194327995306	-0.3001846261397479	-0.3883490051236203	0.2504995955398012	0.2504995955397779	-0.1744206591273687	-0.1733330986466568	-0.0007028837073079886	0.0004761016033685708	-0.01477047306572528	-0.02478502829616204	-0.01121997911555759	0.1165803830895086	-0.00680050958667091	0.03858904712067695	-0.07913843375618737	0.1138423874595454	0.1138423874595456	0.02235783991788445	-0.001056949653887942	0.02017804762697514	-0.0005481378932316513	0.07724345604639941	-0.05626414597479218	-0.01846988919271938	-0.2345317608348412	0.1654698804097044	-0.003521210245710915	-0.006861979028675818	10.63838143000265	-2.91887643363206	2.964230026968955	18.90079942549877	-610.6884338641006	-81.60003763852514	-23.16280767442094	-1.409821570750431	-2.413729900248342	-1.098923085177844	11.36865277172755	-0.6715163493003719	3.82539302138859	-7.762983094285603	11.1619497775624	11.16194977756168	2.174188266670109	-0.06269542682415784	2.00517697453033	-0.05001472535434836	-2.011873121813873e-08	2.48185150287702e-07	1.789041718122839e-07	2.467578262730688e-08	2.771177812256836e-08	-6.876716024228368e-08	8.313678637814715e-09
0.02	-0.03692011841499385	0.05610054016203859	0.9201216494222551	0.310899147865754	-0.2957201662090031	-0.2996109727047722	-0.3895197208756794	0.2521936037710882	0.2521936037710856	-0.1740875079263929	-0.1733488160979129	-0.0003996130510614197	0.0004694607531093178	-0.02902831607279201	-0.04831561053251512	-0.02214652447600332	0.2290650504267009	-0.01329476235209378	0.07593432306456795	-0.1543502864974545	0.2244141837114601	0.2244141837114566	0.04418332981776774	-0.002081087744652354	0.0405000112364748	-0.000716392526774136	0.07093336232441427	-0.05779867054800382	-0.01791941772245551	-0.2311227417487879	0.1630594133367501	0.001089822774966282	-0.0003604961948680758	9.992331982193457	-4.785570518663186	3.235835288347268	17.08968945011934	-612.892689142089	-84.72764776587458	-23.18220846040837	-1.483341263557154	-2.294437173363793	-1.0947891255379	11.2128804453214	-0.6205559720878396	3.614985299229334	-7.233918684562016	11.0111688808309	11.01116888083085	2.225887937524337	-0.1834911517363682	2.079039334662308	0.03055889766115927	-5.982462381546645e-08	2.401840845505144e-07	2.912045551911867e-07	6.985896555407813e-08	-1.617021363243389e-07	-1.512460145438015e-07	-9.655384247966036e-10
0.03	-0.0372799807690649	0.05550453663330811	0.9198463255233659	0.3137365504728417	-0.2958842020645662	-0.2986706544684222	-0.3914237257272699	0.2549774550764908	0.254977455076483	-0.173538765590331	-0.173375098753224	0.0001070420286554228	0.0004629563069581331	-0.04286651089533739	-0.07071790068755647	-0.03290781745178784	0.3378236764351938	-0.0194598152705885	0.1119373517981816	-0.2259162865914057	0.3318402770657724	0.3318402770657691	0.06544772678778775	-0.00314967946178176	0.06079817504972034	-0.0005401512104515528	0.06459683336797775	-0.05421602805232239	-0.01726677996692157	-0.2272889173750561	0.1605672642024632	0.0009747553319331786	0.005559400370572618	9.167584602369535	-4.620357889707621	3.24281360163637	16.21059201497596	-614.2414517372277	-83.50540462417563	-23.21345825982884	-1.322417430921304	-2.188031606053444	-1.065266811870328	10.6185748591615	-0.606671056023863	3.564132571584297	-7.037781085688427	10.53095974852228	10.53095974852218	2.059175358902007	-0.06463621500292772	2.000286464042968	0.01773675473080748	-8.833013099063762e-08	1.832767369276038e-07	3.80415178136557e-07	9.453771496826106e-08	-2.915426761406967e-07	-2.251364987368516e-07	-1.434683023316733e-08
0.04	-0.03777589683925421	0.05468952886912812	0.9194636952090642	0.3176437835760774	-0.2961083266701722	-0.2973760717624948	-0.3940273586625879	0.2588200933525844	0.2588200933525812	-0.1727808873281208	-0.1734112859323745	0.0008156950583816682	0.00045953027519272	-0.05623905929044772	-0.09211645762241619	-0.0436078075584893	0.4430311496655864	-0.02531251236082597	0.146787216978063	-0.2942759032402809	0.4361715778517226	0.4361715778517197	0.08601051504426391	-0.004061992510989643	0.08089960123844746	-0.0001007096496090705	0.05826030441133444	-0.0506333855566351	-0.01661414221139416	-0.2234550930014234	0.158075115068159	0.0008596878889000654	0.01147929693586947	8.426441897755749	-4.465716771495531	3.246831064133179	15.20428978124156	-614.3445579264991	-82.17127503993554	-23.25533171112232	-1.390211978069056	-2.093690529328445	-1.082528551721303	10.50264988970151	-0.5580848064362972	3.384352588482773	-6.592641995546257	10.39221036715864	10.39221036715865	2.0855661948158	-0.1522354181522135	2.039691809757555	0.08319894656486139	-1.166047023839087e-07	1.253610123585958e-07	4.691497235472152e-07	1.187936925574422e-07	-4.201548989543629e-07	-2.988499031338509e-07	-2.781270090227537e-08
0.05	-0.03840356049364151	0.05366558241291881	0.9189740797721438	0.322585935594626	-0.2963892145418966	-0.2957397419705376	-0.3972980302857421	0.2636908656165082	0.2636908656164508	-0.1718206298690145	-0.1734566290371349	0.001724385586344036	0.0004620328514253498	-0.06920940269961554	-0.1125017295941192	-0.05432597096516407	0.5447987862736401	-0.03079866620207973	0.1802689198621291	-0.359318051266159	0.5374556063736503	0.5374556063736612	0.1059200456889583	-0.004975929474221727	0.1007973031312878	0.0006568260040911668	0.05114312268090346	-0.04870649391612671	-0.01581483398882351	-0.2193287630849049	0.1542363996142853	0.002744631857199373	0.01785707780118854	7.322100643610441	-5.101815408372057	3.360612649598822	14.43230431306168	-614.5069833477756	-82.41655312655375	-23.30628194544808	-1.237806070854895	-1.985255975208852	-1.068148976402751	9.9237399059271	-0.534005967042976	3.298539026644268	-6.378945685878633	9.917414483451697	9.91741448345361	1.925575644106673	-0.05629033154222928	1.958631359098757	0.0802973435130357	-1.3517943868078e-07	5.308910453105105e-08	5.199021968682069e-07	1.327822993189002e-07	-5.080393777574666e-07	-3.478588871920288e-07	-3.942524166923031e-08
